<?xml version="1.0" encoding="utf-8"?>
<!-- Generator: Adobe Illustrator 27.2.0, SVG Export Plug-In . SVG Version: 6.00 Build 0)  -->
<svg version="1.1" id="Layer_1" xmlns="http://www.w3.org/2000/svg" xmlns:xlink="http://www.w3.org/1999/xlink" x="0px" y="0px"
	 viewBox="0 0 500 500" style="enable-background:new 0 0 500 500;" xml:space="preserve">
<style type="text/css">
	.st0{fill:#F4EC90;}
	.st1{fill:#231815;}
	.st2{fill:#BBDEFB;}
</style>
<g id="图层_1">
	<path class="st0" d="M382.2,162.9L382.2,162.9c2.5,0.7,3.9,3.2,3.2,5.6c-0.4,1.6-1.7,2.8-3.2,3.2l0,0c-22,5.9-39.2,23.1-45.1,45.1
		l0,0c-0.7,2.5-3.2,3.9-5.6,3.2c-1.6-0.4-2.8-1.7-3.2-3.2l0,0c-5.9-22-23.1-39.2-45.1-45.1l0,0c-2.5-0.7-3.9-3.2-3.2-5.6
		c0.4-1.6,1.7-2.8,3.2-3.2l0,0c22-5.9,39.2-23.1,45.1-45.1l0,0c0.7-2.5,3.2-3.9,5.6-3.2c1.6,0.4,2.8,1.7,3.2,3.2l0,0
		C343,139.8,360.2,157,382.2,162.9z"/>
	<path class="st1" d="M379.3,173.3c-4.8-1.3,6.1-12.4-2-11.4c-1,0.2-2,0.6-2.9,1c-2.5,0.9-4.9,1.9-7.3,3c-5.1,2.4-9.9,5.4-14.3,8.9
		c-7.9,6.1-14.5,13.8-19.3,22.5c-2.4,4.3-5.6,9.9-6.2,14.8c-0.5,3.6-3.1,2,5.4,2c7,0,6.5,1.4,5.1-3c-0.9-2.8-2-5.6-3.2-8.3
		c-4-9.1-9.9-17.3-17.3-24.1c-7.9-7.2-17.1-12.6-27.2-16c-1.3-0.6-2.6-1-3.9-1.2v6c-1.9,4.9-1.6,6.8,1,5.8c2,0,4.9-1.6,6.8-2.3
		c5.3-2,10.3-4.7,15-7.9c12.6-8.6,22.3-20.9,27.6-35.3c0.7-1.8,2.3-4.8,2.3-6.8h-12l0.6,2c0.4,1.7,0.9,3.3,1.7,4.8
		C337.7,149.9,356.3,166.9,379.3,173.3c13.5,3.9,19.2-16.9,5.8-20.8c-12.3-3.3-23.1-11-30.3-21.6c-6.2-9.5-7.2-26.6-21.4-27.2
		c-15.2-0.6-16.3,17.4-22.7,27.2c-6.8,10-16.9,17.4-28.5,21c-5.9,2-10.9,4.8-12.7,11.3c-1.8,6.9,1.3,14.1,7.5,17.5
		c5,2.7,10.7,3.6,15.7,6.5c5.6,3.2,10.6,7.4,14.7,12.3c3.6,4.3,6.4,9.1,8.4,14.3c2.6,6.5,3.5,12.8,10.7,15.9
		c6.1,2.6,13.1,1,17.5-3.9c4-4.6,4.7-11.5,7.5-16.8c6.8-12.8,17.8-21.5,31.4-26.3c6.7-2.3,12.1-5.8,13.1-13.4
		c1-7.6-3.7-14.8-11.1-16.9C371.6,148.8,365.9,169.7,379.3,173.3z"/>
	<path class="st2" d="M225.5,274.5c-51.4-51.4-66.5-128.9-38-195.8C96.8,117.3,54.6,222,93.2,312.6s143.3,132.8,233.9,94.2
		c42.4-18,76.2-51.8,94.2-94.2C354.4,341,276.9,325.9,225.5,274.5z"/>
	<path class="st1" d="M233.1,266.9c-48.4-49-61.7-122-35.3-185.3c4.1-9.9-8.5-15.4-15.9-12.2c-92.9,40.2-137.6,146.5-101.4,241
		c17.2,44.2,50.7,81.5,93.5,102.3c93.8,45.9,207,7,252.8-86.7c1.3-2.6,2.5-5.3,3.7-8c3.2-7.3-2.4-20-12.2-15.9
		C355,328.7,282.1,315.3,233.1,266.9c-9.9-9.7-25.2,5.5-15.3,15.3c54,53.3,136.1,70.1,206.3,40.8l-12.2-15.9
		c-18.2,42.1-52.4,76.5-95.7,92.5c-38.5,14.2-80.8,14.1-119.1-0.3C117.6,369.5,73.4,280.4,95.5,199c13.6-50,50-90.3,97.3-110.8
		L177,75.9c-29.3,70.2-12.5,152.4,40.8,206.3C227.6,292.1,242.9,276.8,233.1,266.9z"/>
</g>
</svg>
