<?xml version="1.0" encoding="UTF-8"?><svg id="Layer_1" xmlns="http://www.w3.org/2000/svg" viewBox="0 0 474.73 353.71"><defs><style>.cls-1{fill:none;stroke:#231815;stroke-miterlimit:10;stroke-width:1.5px;}.cls-2{fill:#bbdefb;}.cls-3{fill:#231815;}</style></defs><g id="_图层_1"><path class="cls-2" d="m451.42,277.95c.74,21.8-12.64,42.4-33.45,49.65-9.1,3.17-18.21,2.87-27.64,2.87h-135.84c-6.89,0-13.8.08-20.7,0-34.7.05-62.87-28.04-62.92-62.75-.02-12.96,3.97-25.61,11.42-36.21,15.81-23.02,45.04-31.53,71.26-23.48,5.03,1.5,9.94-1.11,12.72-5.18,16.92-24.74,47.77-38.16,77.43-32.35,27.57,5.4,50.07,25.29,58.81,51.99.57,4.16,3.8,7.46,7.94,8.12,22.54,4.98,40.19,23.71,40.99,47.34Z"/><path class="cls-3" d="m440.17,218.83c6.7,4.32,12.65,9.69,17.64,15.9-1.73,3.65-3.69,7.2-5.86,10.61-4.4-6.42-9.97-11.95-16.43-16.29,1.79-3.29,3.34-6.71,4.64-10.22Z"/><path class="cls-2" d="m381.35,113.54c33.72,7.25,60.9,35.22,63.75,70.28.97,11.89-.69,23.84-4.86,35.01-5.64-3.65-11.76-6.49-18.18-8.45-12.54-31.53-40.4-56.17-74.41-61.98-36.01-6.25-72.57,7.55-95.47,36.03-27.08-5.8-55.3,1.72-75.91,20.22-18.35,16.84-28.44,40.85-27.63,65.75-9.35,0-18.69.09-28.03,0-53.82-.16-97.33-43.92-97.17-97.74.15-52.78,42.29-95.84,95.05-97.14,11.07-.15,22.08,1.49,32.62,4.86,5,1.5,9.95-1.11,12.72-5.18,25.96-38.28,73.45-58.82,119.13-49.97,42.48,8.26,77.11,38.94,90.43,80.11.53,4.2,3.78,7.53,7.96,8.18Z"/><path class="cls-3" d="m440.17,218.83c-1.3,3.51-2.85,6.93-4.64,10.22-3.47-2.34-7.17-4.33-11.04-5.93.59-2.09.51-4.31-.21-6.35-.69-2.16-1.46-4.29-2.3-6.4,6.42,1.96,12.54,4.8,18.18,8.45Z"/><path class="cls-3" d="m424.29,216.77c.72,2.04.8,4.26.21,6.35-3.57-1.48-7.28-2.6-11.07-3.36-1.09-3.52-2.41-6.96-3.93-10.31,2.19-.9,4.61-1.09,6.92-.54,1.89.42,3.74.9,5.57,1.5.84,2.08,1.61,4.2,2.3,6.37Z"/><path class="cls-3" d="m413.43,219.76c3.79.76,7.49,1.89,11.07,3.36-2.69,8.93-18.24,11.02-21.92-.36l-.09-.27c-.78-5.42,2.07-10.71,7.01-13.05,1.53,3.35,2.84,6.8,3.93,10.31Z"/><path class="cls-3" d="m402.58,222.76c3.68,11.38,19.23,9.29,21.92.36,3.87,1.6,7.57,3.59,11.04,5.93,6.44,4.35,12,9.88,16.38,16.29,2.17-3.42,4.12-6.96,5.86-10.61,9.9,12.29,15.56,27.45,16.12,43.22,1.04,31.35-18.98,59.86-48.13,70.7-12.01,4.5-24.49,4.34-37.08,4.34h-147.78c-16.14,0-31.53-2.04-46.21-9.44-20.36-10.51-35.65-28.75-42.46-50.63h11.83c-2.62-7.23-4.09-14.83-4.35-22.52v-2.75c0-40.91,33.17-74.08,74.08-74.08,7.75.02,15.45,1.23,22.84,3.6,26.82-40.36,81.28-51.34,121.64-24.52,13.68,9.09,24.53,21.83,31.32,36.78-4.95,2.34-7.79,7.63-7.01,13.05-8.74-26.71-31.23-46.6-58.81-51.99-29.65-5.81-60.51,7.61-77.43,32.35-2.78,4.07-7.69,6.71-12.72,5.18-26.17-7.99-55.45.47-71.26,23.48-19.95,28.39-13.11,67.58,15.29,87.53,10.6,7.45,23.25,11.44,36.21,11.42,6.91.08,13.81,0,20.7,0h135.8c9.43,0,18.54.3,27.64-2.87,20.81-7.25,34.19-27.85,33.45-49.65-.8-23.63-18.45-42.35-40.99-47.34-4.15-.67-7.37-3.96-7.94-8.12l.06.27Z"/><path class="cls-3" d="m395.13,99.7c4.41,13.86-17.33,19.74-21.71,6.01,0-.11-.08-.21-.11-.32-.99-7.03,4.76-15.51,13.96-13.51,1.88.41,3.75.87,5.62,1.38.8,2.1,1.55,4.25,2.24,6.44Z"/><path class="cls-3" d="m381.35,113.54c-4.19-.64-7.44-3.98-7.97-8.18,0,.11.08.21.11.32,4.38,13.77,26.12,7.88,21.71-6.01-.69-2.19-1.5-4.34-2.24-6.49,7.59,2.07,14.93,5,21.86,8.72,35.49,19.16,57.05,59.59,52.55,99.74-1.27,11.47-4.48,22.63-9.47,33.03-4.99-6.21-10.95-11.58-17.64-15.9,4.18-11.17,5.84-23.13,4.86-35.01-2.93-35-30.1-62.97-63.76-70.22Z"/><path class="cls-3" d="m259.53,186.31c-2.46-.75-4.94-1.38-7.42-1.92,22.9-28.49,59.46-42.29,95.47-36.03,34.01,5.81,61.87,30.45,74.41,61.98-1.83-.57-3.68-1.05-5.57-1.5-2.31-.55-4.73-.36-6.92.54-20.04-44.12-72.06-63.63-116.18-43.59-14.95,6.79-27.7,17.65-36.78,31.32-3.37-1.1-6.81-1.94-10.3-2.52l.57-3.17,12.72-5.1Z"/><path class="cls-3" d="m259.53,186.31l-12.72,5.18c1.68-2.46,3.45-4.83,5.3-7.1,2.48.54,4.95,1.17,7.42,1.92Z"/><path class="cls-3" d="m164.06,292.92h-11.83c-1.22-3.89-2.13-7.86-2.73-11.89-.53-3.52-.84-7.07-.93-10.63h11.14c.26,7.69,1.73,15.29,4.35,22.52Z"/><path class="cls-3" d="m157.03,58.68l-12.72,5.16c1.67-2.46,3.41-4.87,5.21-7.24,2.52.6,5.01,1.29,7.51,2.07Z"/><path class="cls-3" d="m373.32,105.36c-13.31-41.18-47.95-71.87-90.43-80.13-45.69-8.86-93.18,11.68-119.13,49.97-2.76,4.07-7.72,6.74-12.72,5.18-10.54-3.37-21.56-5.02-32.62-4.86-53.81,1.33-96.35,46.02-95.02,99.83,1.3,52.76,44.36,94.9,97.14,95.05,9.34.09,18.68,0,28.03,0,.09,3.56.4,7.11.93,10.63.6,4.03,1.52,8,2.73,11.89h-19.97c-21.5,0-42.04-2.04-62.01-11.08-35.55-16.09-62.02-50.67-68.03-89.27-6.17-39.62,7.22-80.61,37.02-107.84,29.81-27.1,71.13-37.63,110.28-28.12-1.8,2.36-3.54,4.77-5.21,7.24l12.72-5.16c-2.49-.78-4.98-1.5-7.51-2.07C188.93,4.04,259.65-13.94,319.37,13.41c34.29,15.31,60.57,44.86,73.57,79.78-1.86-.51-3.74-.98-5.62-1.38-9.25-2.03-14.98,6.52-14.01,13.54Z"/><path class="cls-3" d="m148.64,270.4c-.82-24.91,9.27-48.94,27.64-65.79,20.59-18.48,48.77-26,75.83-20.24-1.84,2.26-3.61,4.63-5.3,7.1l-.57,3.17c-4.14-.73-8.33-1.09-12.54-1.08-40.91,0-74.08,33.17-74.08,74.08v2.75h-10.99v.02Z"/><path class="cls-1" d="m149.52,56.61c-39.15-9.51-80.46,1.02-110.28,28.12C9.44,111.96-3.95,152.95,2.22,192.57c6.01,38.6,32.47,73.18,68.03,89.27,19.94,9.01,40.54,11.08,62.01,11.08h19.97"/><path class="cls-1" d="m149.52,56.61c2.52.6,5.01,1.29,7.51,2.07l-12.72,5.16c1.67-2.46,3.41-4.87,5.21-7.24Z"/><path class="cls-1" d="m392.89,93.21c-12.96-34.92-39.23-64.47-73.57-79.78-59.71-27.33-130.4-9.35-169.81,43.18"/><path class="cls-1" d="m148.64,270.4c-9.35,0-18.69.09-28.03,0-53.82-.16-97.33-43.92-97.17-97.74.15-52.78,42.29-95.84,95.05-97.14,11.07-.15,22.08,1.49,32.62,4.86,5,1.5,9.95-1.11,12.72-5.18,25.96-38.28,73.45-58.82,119.13-49.97,42.48,8.26,77.11,38.94,90.43,80.11"/><path class="cls-1" d="m373.32,105.36c.53,4.2,3.79,7.54,7.97,8.18,33.72,7.25,60.9,35.22,63.75,70.28.97,11.89-.69,23.84-4.86,35.01"/><path class="cls-1" d="m457.81,234.73c5-10.4,8.2-21.57,9.47-33.03,4.5-40.15-17.04-80.58-52.55-99.74-6.93-3.72-14.27-6.65-21.86-8.72"/><path class="cls-1" d="m373.32,105.36c0,.11.08.21.11.32,4.38,13.77,26.12,7.88,21.71-6.01-.69-2.19-1.5-4.34-2.24-6.49-1.86-.51-3.74-.98-5.62-1.38-9.2-2.01-14.94,6.53-13.96,13.56Z"/><path class="cls-1" d="m402.49,222.49l.09.27c3.68,11.38,19.23,9.29,21.92.36.59-2.09.51-4.31-.21-6.35-.69-2.16-1.46-4.29-2.3-6.4-12.54-31.53-40.4-56.17-74.41-61.98-36.01-6.25-72.57,7.55-95.47,36.03-1.84,2.26-3.61,4.63-5.3,7.1l12.72-5.18c-2.46-.75-4.94-1.38-7.42-1.92-27.08-5.8-55.3,1.72-75.91,20.22-18.33,16.85-28.39,40.86-27.57,65.75.09,3.56.4,7.11.93,10.63.6,4.03,1.52,8,2.73,11.89,6.79,21.85,22.06,40.08,42.38,50.6,14.67,7.4,30.03,9.44,46.21,9.44h147.82c12.6,0,25.03.15,37.08-4.34,29.16-10.84,49.17-39.35,48.13-70.7-.57-15.77-6.22-30.94-16.12-43.22-4.99-6.21-10.95-11.58-17.64-15.9-5.64-3.65-11.76-6.49-18.18-8.45-1.83-.57-3.68-1.05-5.57-1.5-2.31-.55-4.73-.36-6.92.54-4.95,2.34-7.79,7.63-7.01,13.05"/><path class="cls-1" d="m402.49,222.49c.57,4.16,3.8,7.46,7.94,8.12,22.52,4.98,40.19,23.71,40.99,47.34.74,21.8-12.64,42.4-33.45,49.65-9.1,3.17-18.21,2.87-27.64,2.87h-135.84c-6.89,0-13.8.08-20.7,0-34.7.05-62.87-28.04-62.92-62.75-.02-12.96,3.97-25.61,11.42-36.21,15.81-23.02,45.04-31.53,71.26-23.48,5.03,1.5,9.94-1.11,12.72-5.18,16.92-24.74,47.77-38.16,77.43-32.35,27.57,5.4,50.07,25.29,58.81,51.99Z"/></g></svg>