<?xml version="1.0" encoding="utf-8"?>
<!-- Generator: Adobe Illustrator 27.2.0, SVG Export Plug-In . SVG Version: 6.00 Build 0)  -->
<svg version="1.1" id="Layer_1" xmlns="http://www.w3.org/2000/svg" xmlns:xlink="http://www.w3.org/1999/xlink" x="0px" y="0px"
	 viewBox="0 0 500 500" style="enable-background:new 0 0 500 500;" xml:space="preserve">
<style type="text/css">
	.st0{fill:#DCDDDD;}
	.st1{fill:#231815;}
	.st2{fill:#BBDEFB;}
	.st3{fill:#F4EC90;}
	.st4{fill:#2EA7E0;}
</style>
<g id="图层_1">
	<path class="st0" d="M317.7,258.7c1.7,3.6,3.2,7.2,4.4,11c0.9,3.2,3.4,5.6,6.5,6.5c8.6,1.9,16.6,5.7,23.5,11.1
		c12.5,9.7,20.2,24.3,21.2,40c0.5,8.2-0.9,16.5-4.1,24.1c-8.8,20.4-28.7,33.7-50.9,34c-5.9,0.1-8.9,4.7-9,9.3h-157
		c0-4.6-3-9.3-9-9.3c-30.5-0.3-57.7-20.7-65.7-50.3c-7.9-29.9,5.1-61.4,31.9-77c7.8-4.5,16.5-7.4,25.5-8.4c6.7-0.8,13.4-0.6,20,0.5
		c3.3,0.5,6.6,1.3,9.8,2.3c4.2,1.2,8.2-0.9,10.5-4.3c13.9-20.3,36.1-33.5,60.6-36c7.7-0.8,15.4-0.4,23,1l0.3,0.1
		C284.7,218.5,306.3,235.3,317.7,258.7z M275.1,390c4.5-1.2,8.3-6.7,6.5-11.5c-1.1-2.9-2.2-5.9-3.4-8.8l-5.8-15.1
		c-0.7-1.9-1.9-3.5-3.4-4.8c-2.2-1.9-5.3-2.5-8.1-1.7l-0.3,0.1c-4.4,1.4-8,6.8-6.2,11.4l2.7,6.9l6.5,17
		C265.4,388.2,269.9,391.4,275.1,390z M227.8,390c4.5-1.2,8.3-6.7,6.5-11.5l-8.6-22.3l-0.6-1.6c-1.8-4.7-6.2-7.9-11.5-6.5
		c-0.8,0.2-1.5,0.5-2.2,0.9c-3.5,2.1-5.9,6.6-4.4,10.5l9.2,23.9C218.2,388.2,222.7,391.4,227.8,390L227.8,390z M180.6,390
		c4.5-1.2,8.3-6.7,6.5-11.5c-3.1-8-6.1-15.9-9.2-23.9c-1.8-4.7-6.3-7.9-11.5-6.5c-4.5,1.2-8.3,6.7-6.5,11.5c3.1,8,6.1,15.9,9.2,23.9
		C171,388.2,175.5,391.4,180.6,390L180.6,390z"/>
	<path class="st1" d="M436.7,276.5c-3.5-4.6-7-9.1-10.5-13.7l-0.7-1.9c2.1-0.8,4.2-1.6,6.2-2.5c8.5-3.5,13.3,7.4,10.5,13.7
		c-11.1,25.5-28.6,47.8-50.7,64.7c0.7-7.7,0.2-15.4-1.6-22.9c9.6-8.9,18.1-19.1,25.1-30.2C422.4,281.8,429.6,279.4,436.7,276.5z"/>
	<path class="st1" d="M426.2,262.7c3.5,4.6,7,9.1,10.5,13.7c-7,2.9-14.2,5.3-21.6,7.2C419.3,277,423,270,426.2,262.7z"/>
	<path class="st1" d="M425.5,260.9l0.7,1.8c-3.1,7.3-6.8,14.3-11.1,20.9c-11.9,3.1-24,4.7-36.3,5.1c-5.3-7.7-11.9-14.3-19.6-19.5
		C381.7,271.5,404.3,268.7,425.5,260.9z"/>
	<path class="st1" d="M396.2,137.4c7-0.8-2.4,8.7,1.7,9.8l-0.8-0.2c-3.4-1.1-5.7-4.3-5.8-7.9c0.8-0.3,1.6-0.6,2.4-0.9
		C394.5,137.8,395.4,137.6,396.2,137.4z"/>
	<path class="st1" d="M402.9,129.3c11.5,3.3,6.6,21.3-5,18c-4.1-1.1,5.2-10.7-1.7-9.8c-0.9,0.2-1.7,0.5-2.5,0.8
		c-0.8,0.3-1.6,0.6-2.4,0.9C391.1,133.4,395.7,127.3,402.9,129.3z"/>
	<path class="st2" d="M378.8,288.7c12.2-0.3,24.4-2,36.3-5.1c-7,11.1-15.4,21.3-25.1,30.2C387.9,304.9,384.1,296.4,378.8,288.7z"/>
	<path class="st1" d="M391.4,338.9c-4.7,36.9-35.9,64.7-73.2,65.1c-6.1,0.1-9.1-4.6-9-9.3h9c30.2,0,56.3-20.9,62.8-50.4
		c3.6-2.3,7.1-4.8,10.5-7.5C391.6,337.5,391.5,338.2,391.4,338.9z"/>
	<path class="st1" d="M387.4,140.8c1.2-0.6,2.6-1.1,4-1.7c0,3.6,2.4,6.7,5.8,7.9c-4.2-1.3-8.3-2.9-12.1-5
		C385.8,141.6,386.6,141.2,387.4,140.8z"/>
	<path class="st1" d="M381.9,320.9c2.8-2.2,5.5-4.5,8.1-6.9c1.8,7.5,2.3,15.3,1.6,22.9c-3.4,2.6-6.9,5.1-10.5,7.5
		C382.8,336.6,383.1,328.7,381.9,320.9z"/>
	<path class="st1" d="M381.9,320.9c-1.7-11.9-6.8-23.1-14.6-32.2c3.8,0.2,7.7,0.2,11.5,0.1c5.3,7.6,9.1,16.2,11.2,25.2
		C387.4,316.3,384.7,318.6,381.9,320.9z"/>
	<path class="st1" d="M382.7,330.3c0,4.7-0.5,9.4-1.5,14c-3.9,2.5-7.9,4.9-11.9,7.1c3.2-7.6,4.6-15.9,4.1-24.1c3-2,5.9-4.2,8.7-6.4
		C382.4,324,382.7,327.1,382.7,330.3z"/>
	<path class="st1" d="M381.1,344.3c-6.6,29.4-32.7,50.4-62.8,50.4h-9c0-4.6,3.1-9.3,9-9.3c22.2-0.3,42.1-13.6,50.9-34
		C373.2,349.2,377.2,346.8,381.1,344.3z"/>
	<path class="st1" d="M381.9,320.9c-2.8,2.2-5.7,4.4-8.7,6.4c-1-15.8-8.7-30.3-21.2-40c5.1,0.7,10.1,1.2,15.2,1.4
		C375.1,297.8,380.2,309,381.9,320.9z"/>
	<path class="st1" d="M367.4,288.6c-9.3-11-22.1-18.6-36.2-21.5c-0.4-1.4-0.9-2.7-1.4-4.1c9.6,3.1,19.5,5.1,29.5,6.1
		c7.7,5.2,14.3,11.9,19.6,19.5C375,288.8,371.2,288.8,367.4,288.6z"/>
	<path class="st1" d="M360.9,107.7c-0.9,2.4-2,4.8-3.2,7.1c-1.2-2.3-2.3-4.7-3.3-7.1c-0.6-1.3-1.1-2.7-1.5-4.2
		c-0.2-0.6-0.3-1.1-0.5-1.7h10.3C362.9,103.5,361.5,106.1,360.9,107.7z"/>
	<path class="st1" d="M330.5,142.1c5,2.6,9.7,5.9,13.8,9.7c5.4,5,9.9,10.9,13.3,17.4c-1.9,3.5-4.1,7.7-4.6,11.4
		c-0.4,3.1-2.7,1.7,4.7,1.7c6,0,5.6,1.2,4.4-2.6c-0.8-2.4-1.8-4.8-2.8-7.2c-0.5-1.1-1.1-2.3-1.6-3.4l0.7-1.3
		c6.2-11,15.4-20,26.6-25.9c3.9,2.1,7.9,3.7,12.1,5l0.8,0.2c11.6,3.3,16.5-14.7,5-18c6.4,1.8,10.5,8,9.6,14.6
		c-0.9,6.6-5.5,9.5-11.3,11.5c-11.8,4.1-21.2,11.6-27.1,22.7c-2.5,4.6-3,10.5-6.5,14.5c-3.8,4.3-9.9,5.6-15.1,3.4
		c-6.2-2.6-7-8.1-9.2-13.7c-1.8-4.5-4.2-8.6-7.3-12.3c-3.6-4.3-7.9-7.9-12.7-10.6c-4.3-2.5-9.3-3.2-13.6-5.6
		c-5.4-3-8.1-9.3-6.5-15.2c1.5-5.6,5.8-8,11-9.8c10-3.1,18.6-9.5,24.4-18.1c5.5-8.5,6.4-24,19.6-23.5c12.3,0.5,13.1,15.3,18.5,23.5
		c6.2,9.2,15.5,15.8,26.1,18.7c-7.2-1.9-11.8,4.2-11.6,10c-1.3,0.5-2.7,1.1-4,1.7c-0.8,0.4-1.6,0.8-2.4,1.2
		c-11.6-6.1-21.1-15.6-27.3-27.2c1.2-2.3,2.2-4.7,3.2-7.1c0.6-1.6,2-4.1,2-5.9h-10.3c0.2,0.6,0.3,1.1,0.5,1.7
		c0.3,1.4,0.8,2.8,1.5,4.2c0.9,2.4,2,4.8,3.3,7.1c-0.8,1.5-1.6,3-2.5,4.5c-4.8,7.4-10.9,13.9-18.2,18.9c-2.1,1.5-4.3,2.8-6.6,3.9
		c-3.1-1.7-6.3-3.1-9.6-4.2c-1.1-0.5-2.2-0.8-3.4-1v5.2c-1.7,4.2-1.4,5.9,0.8,5c1.7,0,4.2-1.4,5.9-2
		C326.3,144.1,328.4,143.1,330.5,142.1z"/>
	<path class="st1" d="M359.3,172.6c1.1,2.3,2,4.7,2.8,7.2c1.2,3.8,1.6,2.6-4.4,2.6c-7.3,0-5.1,1.4-4.7-1.7c0.5-3.7,2.7-7.9,4.6-11.4
		C358.3,170.3,358.8,171.4,359.3,172.6z"/>
	<path class="st3" d="M375.1,148.4c-6.8,5.3-12.5,11.9-16.7,19.4l-0.7,1.3c-3.4-6.5-7.9-12.4-13.3-17.4c-4.2-3.8-8.8-7.1-13.8-9.7
		c2.3-1.2,4.5-2.5,6.6-3.9c7.2-5,13.4-11.5,18.2-18.9c0.9-1.4,1.7-2.9,2.5-4.5c6.2,11.6,15.7,21.1,27.3,27.2
		C381.5,143.8,378.2,146,375.1,148.4z"/>
	<path class="st1" d="M331.1,267.2c14.1,2.9,26.9,10.4,36.2,21.5c-5.1-0.2-10.2-0.7-15.2-1.4c-6.9-5.4-14.9-9.2-23.5-11
		c-3.2-0.9-5.6-3.4-6.5-6.5c-1.2-3.8-2.7-7.4-4.4-11c3.9,1.7,8,3.1,12,4.4C330.2,264.4,330.7,265.8,331.1,267.2z"/>
	<path class="st1" d="M340.1,264.7l-6.5-6.5c1.6,0.3,3.1,0.7,4.6,1.2C338.9,261.2,339.6,262.9,340.1,264.7z"/>
	<path class="st1" d="M320.8,138c3.3,1.1,6.5,2.5,9.7,4.1c-2.1,1.1-4.2,2-6.3,2.9c-1.6,0.6-4.1,2.1-5.9,2c-2.2,0.9-2.5-0.7-0.8-5
		v-5.2C318.6,137.1,319.7,137.5,320.8,138z"/>
	<path class="st4" d="M302.1,431.9c1.8,4.7-2,10.2-6.5,11.5c-5.2,1.4-9.7-1.8-11.5-6.5l-9.2-23.9c-1.8-4.7,2-10.2,6.5-11.5
		c5.2-1.4,9.7,1.8,11.5,6.5L302.1,431.9z"/>
	<path class="st1" d="M329.7,263.1c-4.1-1.2-8.1-2.8-12-4.4c-11.4-23.4-33.1-40.2-58.6-45.3c-2.6-3.4-5-6.8-7.2-10.4
		C287.3,206.3,317.6,229.7,329.7,263.1z"/>
	<path class="st4" d="M269.1,349.9c1.5,1.3,2.7,2.9,3.4,4.8l5.8,15.1c-3.5-0.3-7-0.7-10.4-1.2c-3.5-0.5-7.2-1.2-10.7-2l-2.7-6.9
		c-1.8-4.6,1.8-10,6.2-11.4C263.4,348.9,266.2,349.4,269.1,349.9z"/>
	<path class="st4" d="M257.1,366.5c3.5,0.8,7.1,1.5,10.7,2c3.6,0.5,6.9,0.9,10.4,1.2c1.1,2.9,2.3,5.8,3.4,8.8
		c1.8,4.7-2,10.2-6.5,11.5c-5.2,1.4-9.7-1.8-11.5-6.5L257.1,366.5z"/>
	<path class="st4" d="M261,348.1c2.8-0.8,5.8-0.2,8.1,1.7c-2.8-0.4-5.6-1-8.4-1.6L261,348.1z"/>
	<path class="st4" d="M254.9,431.9c1.8,4.7-2,10.2-6.5,11.5c-5.2,1.4-9.7-1.8-11.5-6.5c-3-8-6.1-15.9-9.2-23.9
		c-1.8-4.7,2-10.2,6.5-11.5c5.2-1.4,9.7,1.8,11.5,6.5L254.9,431.9z"/>
	<path class="st1" d="M251.9,203c2.2,3.6,4.6,7,7.2,10.4l-0.3-0.1c-7.6-1.5-15.3-1.8-23-1c-1.8-2.9-3.4-5.8-5-8.7
		c4.2-0.6,8.5-0.9,12.8-0.9C246.4,202.6,249.2,202.7,251.9,203z"/>
	<path class="st1" d="M246.4,193.5c5.2,0.1,10.4,0.6,15.5,1.5c35,6.2,63.8,31.6,76.3,64.4c-1.5-0.4-3.1-0.8-4.6-1.2l6.5,6.5
		c-0.6-1.8-1.2-3.6-1.9-5.3c7.5,2.2,14.6,5.5,21,9.9c-10-1-19.9-3.1-29.5-6.1c-12.1-33.4-42.4-56.8-77.8-60.1
		C250,199.9,248.2,196.7,246.4,193.5z"/>
	<path class="st1" d="M246.4,193.5c1.7,3.2,3.5,6.4,5.5,9.5c-2.8-0.2-5.6-0.4-8.4-0.4c-4.3,0-8.5,0.3-12.8,0.9
		c-1.5-2.8-2.9-5.7-4.3-8.5C233.1,193.8,239.8,193.3,246.4,193.5z"/>
	<path class="st1" d="M246.4,193.5c-6.7-0.2-13.4,0.4-20,1.5c-16.1-34.5-19.8-73.4-10.4-110.3c6.7-4.2,13.7-7.9,20.9-11.1l1.8,0.7
		C224.4,113.3,227.2,156.6,246.4,193.5z"/>
	<path class="st1" d="M227.6,57.5c6.4-2.8,17.3,2,13.7,10.5c-0.9,2.1-1.7,4.1-2.5,6.2l-1.8-0.7L223.3,63l-1.4-3
		C223.8,59.1,225.7,58.3,227.6,57.5z"/>
	<path class="st1" d="M223.3,63L237,73.6c-7.3,3.1-14.3,6.8-20.9,11.1C217.9,77.3,220.3,70.1,223.3,63z"/>
	<path class="st1" d="M230.7,203.5c1.6,3,3.3,5.9,5,8.7c-24.5,2.5-46.7,15.7-60.6,36c-2.3,3.4-6.4,5.6-10.5,4.3
		c-3.2-1-6.5-1.8-9.8-2.3c-1-3.3-2-6.6-2.8-10c5.1,0.6,10.1,1.7,15,3.3C181.6,221.7,204.8,207.1,230.7,203.5z"/>
	<path class="st4" d="M225.2,354.6l0.6,1.6c-1.7-0.7-3.4-1.5-5.1-2.3c-3.1-1.5-6.2-3.1-9.2-4.8c0.7-0.4,1.4-0.7,2.2-0.9
		C218.9,346.7,223.4,350,225.2,354.6z"/>
	<path class="st4" d="M211.6,349.1c3,1.7,6.1,3.3,9.2,4.8c1.7,0.8,3.4,1.6,5.1,2.3l8.6,22.3c1.8,4.7-2,10.2-6.5,11.5
		c-5.2,1.4-9.7-1.8-11.5-6.5l-9.2-23.9C205.7,355.7,208.1,351.2,211.6,349.1z"/>
	<path class="st1" d="M221.9,60.1l1.4,3c-2.9,7-5.3,14.2-7.2,21.6c-30.9,19.3-53.4,49.5-63.1,84.6c-5.4,20.1-6.4,41.1-2.8,61.6
		c-6.4-0.5-12.8-0.2-19.1,0.7C120.3,160.7,157.2,91.1,221.9,60.1L221.9,60.1z"/>
	<path class="st2" d="M216.1,84.7c-9.4,36.9-5.7,75.8,10.4,110.3c-25,4.4-47.4,17.9-63.1,37.9c-4.4-1-8.8-1.7-13.2-2
		c-3.6-20.5-2.6-41.5,2.8-61.6C162.7,134.2,185.2,104,216.1,84.7z"/>
	<path class="st4" d="M207.7,431.9c1.8,4.7-2,10.2-6.5,11.5c-5.2,1.4-9.7-1.8-11.5-6.5c-3.1-8-6.1-15.9-9.2-23.9
		c-1.8-4.7,2-10.2,6.5-11.5c5.2-1.4,9.7,1.8,11.5,6.5L207.7,431.9z"/>
	<path class="st4" d="M187.2,378.5c1.8,4.7-2,10.2-6.5,11.5c-5.2,1.4-9.7-1.8-11.5-6.5c-3-8-6.1-15.9-9.2-23.9
		c-1.8-4.7,2-10.2,6.5-11.5c5.2-1.4,9.7,1.8,11.5,6.5C181.1,362.6,184.1,370.6,187.2,378.5z"/>
	<path class="st1" d="M169.6,234.5l-10.5,4.3c1.4-2,2.8-4,4.3-5.9C165.5,233.4,167.6,233.9,169.6,234.5z"/>
	<path class="st1" d="M226.5,195c1.3,2.9,2.7,5.7,4.3,8.5c-25.9,3.7-49.1,18.2-63.6,40.1c-4.9-1.6-9.9-2.7-15-3.3
		c-0.7-3.1-1.4-6.2-1.9-9.4c4.5,0.3,8.9,1,13.2,2c-1.5,1.9-2.9,3.9-4.3,5.9l10.5-4.3c-2.1-0.6-4.1-1.2-6.2-1.6
		C179,212.9,201.5,199.4,226.5,195z"/>
	<path class="st1" d="M143.3,239.8c3,0,5.9,0.2,8.8,0.5c0.8,3.3,1.8,6.6,2.8,10c-6.6-1.1-13.4-1.3-20-0.5c-0.8-3-1.6-6.1-2.2-9.2
		C136.2,240,139.7,239.8,143.3,239.8z"/>
	<path class="st1" d="M131.1,231.6c6.3-0.9,12.7-1.2,19.1-0.7c0.5,3.2,1.2,6.3,1.9,9.4c-6.5-0.8-13-0.7-19.5,0.2
		C132,237.6,131.5,234.6,131.1,231.6z"/>
	<path class="st1" d="M143.3,385.3c6,0.1,9,4.7,9,9.3h-9c-42.8,0-77.4-34.7-77.4-77.4c0-38.6,28.5-71.4,66.8-76.7
		c0.6,3.1,1.4,6.2,2.2,9.2c-9,1.1-17.6,3.9-25.4,8.4c-26.7,15.6-39.7,47-31.8,76.9C85.6,364.7,112.8,385,143.3,385.3z"/>
	<path class="st1" d="M152.3,394.7c0,4.7-3,9.4-9,9.3c-21.9-0.1-42.9-8.4-59-23.2c-29-26.6-35.8-71.1-17-105.5
		c13.2-23.8,36.8-39.9,63.8-43.7c0.4,3,1,6,1.6,8.9c-42.4,5.9-71.9,45-66.1,87.3c5.3,38.3,38,66.8,76.7,66.8H152.3z"/>
</g>
</svg>
